# xmcd CD database file
#
# Track frame offsets:
#	150
#	16872
#	32461
#	46685
#	61647
#	69713
#	85054
#	100779
#	116987
#	136543
#	155630
#	170613
#
# Disc length: 2427 seconds
#
# Revision: 0
# Processed by: cddbd v1.4PL0 Copyright (c) Steve Scherf et al.
# Submitted via: CDex 1.40Release
#
DISCID=8c09790c
DTITLE=Eric Bibb - Natural Light
DYEAR=2003
DGENRE=Blues
TTITLE0=Too Much Stuff
TTITLE1=Home Lovin' Man
TTITLE2=So Sorry
TTITLE3=Tell Riley
TTITLE4=Guru Man Blues
TTITLE5=Every Time It Rains
TTITLE6=Champagne Habits
TTITLE7=Water Works Fine
TTITLE8=Circles
TTITLE9=Right On Time
TTITLE10=Gratefully Blue
TTITLE11=Lucky Man Rag
EXTD=YEAR: 2003 ID3G: 0
EXTT0=
EXTT1=
EXTT2=
EXTT3=
EXTT4=
EXTT5=
EXTT6=
EXTT7=
EXTT8=
EXTT9=
EXTT10=
EXTT11=
PLAYORDER=
